<svg id="Filled" height="300" viewBox="0 0 512 512" width="300" xmlns="http://www.w3.org/2000/svg" version="1.1" xmlns:xlink="http://www.w3.org/1999/xlink" xmlns:svgjs="http://svgjs.dev/svgjs"><g width="100%" height="100%" transform="matrix(1,0,0,1,0,0)"><path d="m176 304c96 0 136 89.543 136 200h-272c0-110.457 40-200 136-200z" fill="#055c3a" fill-opacity="1" data-original-color="#fa5d3fff" stroke="none" stroke-opacity="1"/><path d="m136 312-16 72 56-16z" fill="#f04e23" fill-opacity="1" data-original-color="#fdc069ff" stroke="none" stroke-opacity="1"/><path d="m216 312 16 72-56-16z" fill="#f04e23" fill-opacity="1" data-original-color="#fdc069ff" stroke="none" stroke-opacity="1"/><path d="m144 312 32 56 32-56-8-48h-48z" fill="#ffd4cf" fill-opacity="1" data-original-color="#ffd4cfff" stroke="none" stroke-opacity="1"/><path d="m200 264h-48l-5.414 32.485 10.389 6.493a36 36 0 0 0 38.018.085l10.441-6.459z" fill="#fbb8b0" fill-opacity="1" data-original-color="#fbb8b0ff" stroke="none" stroke-opacity="1"/><path d="m240 178.734h20a20 20 0 0 1 20 20v16a20 20 0 0 1 -20 20h-20a0 0 0 0 1 0 0v-56a0 0 0 0 1 0 0z" fill="#055c3a" fill-opacity="1" data-original-color="#fa5d3fff" stroke="none" stroke-opacity="1"/><path d="m72 176h20a20 20 0 0 1 20 20v16a20 20 0 0 1 -20 20h-20a0 0 0 0 1 0 0v-56a0 0 0 0 1 0 0z" fill="#055c3a" transform="matrix(-1 0 0 -1 184 408)" fill-opacity="1" data-original-color="#fa5d3fff" stroke="none" stroke-opacity="1"/><path d="m112 160h128v85.263a20 20 0 0 1 -9.478 17.009l-43.946 27.186a20 20 0 0 1 -21.122-.049l-44.054-27.534a20 20 0 0 1 -9.4-16.96z" fill="#ffd4cf" fill-opacity="1" data-original-color="#ffd4cfff" stroke="none" stroke-opacity="1"/><path d="m146 72h60a50 50 0 0 1 50 50v38a0 0 0 0 1 0 0h-160a0 0 0 0 1 0 0v-38a50 50 0 0 1 50-50z" fill="#f04e23" fill-opacity="1" data-original-color="#fdc069ff" stroke="none" stroke-opacity="1"/><path d="m225.71 181.119-8.55-5.13a80 80 0 0 0 -82.32 0l-8.55 5.13a20 20 0 0 1 -30.29-17.15v-12.676l44.223-22.112a80 80 0 0 1 71.554 0l44.223 22.112v12.676a20 20 0 0 1 -30.29 17.15z" fill="#f04e23" fill-opacity="1" data-original-color="#fdc069ff" stroke="none" stroke-opacity="1"/><path d="m328 504h-112v-88l24-40h64l24 48z" fill="#f9ed24" fill-opacity="1" data-original-color="#25b1faff" stroke="none" stroke-opacity="1"/><path d="m448 376h-144l24 48v80h144v-80z" fill="#f9ed24" fill-opacity="1" data-original-color="#80daffff" stroke="none" stroke-opacity="1"/><path d="m272 342v34h32v-32h88v32h32v-34a30 30 0 0 0 -30-30h-92a30 30 0 0 0 -30 30z" fill="#f9ed24" fill-opacity="1" data-original-color="#25b1faff" stroke="none" stroke-opacity="1"/><path d="m392 288v-54.438a47.98 47.98 0 0 0 2.511-81.562h-10.511v32l-16 16-16-16v-32h-10.511a47.98 47.98 0 0 0 2.511 81.562v54.438z" fill="#f9ed24" fill-opacity="1" data-original-color="#80daffff" stroke="none" stroke-opacity="1"/><path d="m255.973 18.3 106.972 87.211a8 8 0 0 0 13.055-6.2v-43.311h64v32h16v-40a8 8 0 0 0 -8-8h-80a8 8 0 0 0 -8 8v34.467l-98.945-80.667a8 8 0 0 0 -10.077-.028l-48 38.71 10.044 12.456z" fill="#000000" fill-opacity="1" data-original-color="#000000ff" stroke="none" stroke-opacity="1"/><path d="m509.206 201.926-53.206-45.606v-52.32h-16v56a8 8 0 0 0 2.794 6.074l53.206 45.606v76.32h16v-80a8 8 0 0 0 -2.794-6.074z" fill="#000000" fill-opacity="1" data-original-color="#000000ff" stroke="none" stroke-opacity="1"/><path d="m496 496h-16v-72a7.994 7.994 0 0 0 -.845-3.578l-24-48a8 8 0 0 0 -7.155-4.422h-16v-26a38.043 38.043 0 0 0 -38-38h-92a38.07 38.07 0 0 0 -36.431 27.179 117.576 117.576 0 0 0 -51.275-30.079l-2.929-17.574 9.511-5.884.123.035a38 38 0 0 0 51-35.707v-4.67a28.036 28.036 0 0 0 16.001-25.3v-16a28.041 28.041 0 0 0 -24.316-27.758 28.868 28.868 0 0 0 .316-4.273v-41.969a58.066 58.066 0 0 0 -58-58h-30v16h30a42.047 42.047 0 0 1 42 42v16.349l-32.645-16.323a88.418 88.418 0 0 0 -78.71 0l-32.645 16.323v-16.349a42.047 42.047 0 0 1 42-42h14v-16h-14a58.066 58.066 0 0 0 -58 58v41.969a28.868 28.868 0 0 0 .316 4.273 28.041 28.041 0 0 0 -24.316 27.758v16a28.032 28.032 0 0 0 28 28h12v4.915a27.839 27.839 0 0 0 13.16 23.744l23.5 14.69-2.96 17.754c-34.972 9.943-61.948 33.946-80.208 71.39l14.381 7.014c13.083-26.826 31.033-45.817 53.521-56.681l-13.204 59.439a8 8 0 0 0 10.008 9.427l53.802-15.372 46.505 13.288-13.365 22.276a8.009 8.009 0 0 0 -1.14 4.116v80h-159.93c.692-38.925 6.467-72.924 17.2-101.159l-14.957-5.682c-11.413 30.032-17.542 65.941-18.245 106.841h-16.068v-284.175l53.022-42.759-10.044-12.455-56 45.161a8 8 0 0 0 -2.978 6.228v296a8 8 0 0 0 8 8h496a8 8 0 0 0 8-8v-200h-16zm-216-154a22.025 22.025 0 0 1 22-22h92a22.025 22.025 0 0 1 22 22v26h-16v-24a8 8 0 0 0 -8-8h-88a8 8 0 0 0 -8 8v24h-16zm32 26v-16h72v16zm-48-14.536v14.536h-24a7.991 7.991 0 0 0 -3.211.673l-10.189-45.832a106.28 106.28 0 0 1 37.4 30.623zm-17.469-93.409a22.475 22.475 0 0 1 -4.383 2.372 27.844 27.844 0 0 0 5.852-17.163v-5.264h8v1.973a21.717 21.717 0 0 1 -9.469 18.082zm25.469-64.055v16a12.013 12.013 0 0 1 -12 12h-12v-34.73q.907-.435 1.8-.936a28.571 28.571 0 0 0 5.8-4.334h4.4a12.013 12.013 0 0 1 12 12zm-168-39.763 39.8-19.9a72.337 72.337 0 0 1 64.4 0l39.8 19.9v7.732a12 12 0 0 1 -18.174 10.291l-8.551-5.132a87.835 87.835 0 0 0 -90.55 0l-8.551 5.13a12 12 0 0 1 -18.174-10.289zm-12 67.763a12.013 12.013 0 0 1 -12-12v-16a12.013 12.013 0 0 1 12-12h4.4a28.571 28.571 0 0 0 5.807 4.334q.888.5 1.8.936v34.73zm28 20.915v-53.188a28.215 28.215 0 0 0 10.406-3.748l8.551-5.13a71.872 71.872 0 0 1 74.086 0l8.551 5.131a28.184 28.184 0 0 0 10.406 3.746v53.538a11.921 11.921 0 0 1 -5.688 10.2l-7.886 4.879-24.272-6.788-4.308 15.408 10.086 2.821-17.565 10.866a11.923 11.923 0 0 1 -12.673-.029l-44.054-27.53a11.93 11.93 0 0 1 -5.64-10.176zm41.215 51.278a27.826 27.826 0 0 0 29.57.068l5.875-3.635 2.981 17.879-23.641 41.371-23.641-41.371 3-17.974zm-19.654 27.663 22.431 39.254-33.267 9.5zm46.447 39.254 22.431-39.254 10.836 48.759zm35.992 132.89v-77.784l20.529-34.216h54.527l20.944 41.889v70.111zm112 0v-64h64v-16h-67.056l-16-32h126.112l16 32h-43.056v16h48v64z" fill="#000000" fill-opacity="1" data-original-color="#000000ff" stroke="none" stroke-opacity="1"/><path d="m80 416h64v16h-64z" fill="#000000" fill-opacity="1" data-original-color="#000000ff" stroke="none" stroke-opacity="1"/><path d="m200 236h-16c0 1.41-3.037 4-8 4s-8-2.59-8-4h-16c0 11.215 10.542 20 24 20s24-8.785 24-20z" fill="#000000" fill-opacity="1" data-original-color="#000000ff" stroke="none" stroke-opacity="1"/><path d="m200 192h16v16h-16z" fill="#000000" fill-opacity="1" data-original-color="#000000ff" stroke="none" stroke-opacity="1"/><path d="m136 192h16v16h-16z" fill="#000000" fill-opacity="1" data-original-color="#000000ff" stroke="none" stroke-opacity="1"/><path d="m368 456h64v16h-64z" fill="#000000" fill-opacity="1" data-original-color="#000000ff" stroke="none" stroke-opacity="1"/><path d="m288 464h16v16h-16z" fill="#000000" fill-opacity="1" data-original-color="#000000ff" stroke="none" stroke-opacity="1"/><path d="m240 464h16v16h-16z" fill="#000000" fill-opacity="1" data-original-color="#000000ff" stroke="none" stroke-opacity="1"/><path d="m248 408h48v16h-48z" fill="#000000" fill-opacity="1" data-original-color="#000000ff" stroke="none" stroke-opacity="1"/><path d="m387.993 226.639a8 8 0 0 0 -3.993 6.923v54.438h16v-50.057a55.974 55.974 0 0 0 -1.064-92.608 8 8 0 0 0 -4.425-1.335h-10.511a8 8 0 0 0 -8 8v28.687l-8 8-8-8v-28.687a8 8 0 0 0 -8-8h-10.511a8 8 0 0 0 -4.425 1.335 55.974 55.974 0 0 0 -1.064 92.608v50.057h16v-54.438a8 8 0 0 0 -3.993-6.923 39.979 39.979 0 0 1 -4.007-66.622v23.983a8 8 0 0 0 2.343 5.657l16 16a8 8 0 0 0 11.314 0l16-16a8 8 0 0 0 2.343-5.657v-23.983a39.979 39.979 0 0 1 -4.007 66.622z" fill="#000000" fill-opacity="1" data-original-color="#000000ff" stroke="none" stroke-opacity="1"/></g></svg>